<svg xmlns="http://www.w3.org/2000/svg" viewBox="0 0 100 120" fill="none">
  <defs>
    <linearGradient id="bg" x1="0" y1="0" x2="0" y2="1">
      <stop offset="0%" stop-color="#fff060"/>
      <stop offset="100%" stop-color="#c89000"/>
    </linearGradient>
    <linearGradient id="shine" x1="0" y1="0" x2="1" y2="1">
      <stop offset="0%" stop-color="#ffffff" stop-opacity="0.45"/>
      <stop offset="100%" stop-color="#ffffff" stop-opacity="0"/>
    </linearGradient>
    <filter id="shadow">
      <feDropShadow dx="0" dy="3" stdDeviation="5" flood-color="#c89000" flood-opacity="0.55"/>
    </filter>
  </defs>
  <path d="M50 6 L90 22 L90 62 C90 85 50 114 50 114 C50 114 10 85 10 62 L10 22 Z" fill="url(#bg)" filter="url(#shadow)"/>
  <path d="M50 6 L90 22 L90 62 C90 85 50 114 50 114 C50 114 10 85 10 62 L10 22 Z" fill="url(#shine)"/>
  <path d="M50 6 L90 22 L90 62 C90 85 50 114 50 114 C50 114 10 85 10 62 L10 22 Z" fill="none" stroke="#f0da00" stroke-width="2"/>
  <text x="50" y="72" text-anchor="middle" font-family="system-ui,sans-serif" font-size="38" font-weight="800" fill="#3d2000" opacity="0.9">1</text>
  <text x="50" y="44" text-anchor="middle" font-family="system-ui,sans-serif" font-size="13" font-weight="700" letter-spacing="2" fill="#3d2000" opacity="0.85">GOLD</text>
  <text x="50" y="100" text-anchor="middle" font-family="system-ui,sans-serif" font-size="11" fill="#3d2000" opacity="0.7">★☆☆</text>
</svg>
